<svg version="1.1" xmlns="http://www.w3.org/2000/svg" xmlns:xlink="http://www.w3.org/1999/xlink" x="0px" y="0px" viewBox="0 0 1000 1000" enable-background="new 0 0 1000 1000" xml:space="preserve">
    <g>
        <g transform="translate(0.000000,512.000000) scale(0.100000,-0.100000)">
            <path fill="black" d="M4734.7,5008c-1087.3-116.8-1952.6-970.6-2067.5-2044.5c-63.2-585.8,193.3-1131.4,991.6-2113.4l63.2-76.6l-197.2,91.9c-430.7,204.8-683.4,260.4-1154.3,258.4c-308.2-1.9-363.7-5.7-530.3-51.7C1187.5,897.9,645.7,444.2,387.3-143.5c-457.5-1045.2-21.1-2245.5,1005-2764.3c323.5-162.7,635.6-235.5,1016.5-231.6c666.2,3.8,1340,287.1,1866.5,783c82.3,78.5,134,116.8,128.3,93.8c-7.7-21-68.9-227.8-135.9-459.4c-266.1-903.6-560.9-1684.6-744.7-1977.5l-51.7-80.4h1533.4h1531.5l-36.4,53.6c-189.5,266.1-532.2,1169.7-815.5,2153.6l-103.4,359.9l143.6-135.9c524.5-499.6,1204.1-786.8,1872.2-790.6c279.5-1.9,459.4,24.9,700.6,103.3c758.1,245,1315.1,869.1,1464.5,1636.8c44,224,42.1,595.4-1.9,802.1c-93.8,446-266.1,763.8-583.9,1083.5c-291,294.8-606.8,478.6-1010.8,585.8c-164.6,44-224,49.8-530.3,51.7c-470.9,1.9-731.3-55.5-1154.3-256.5c-166.6-78.5-191.4-88.1-162.7-49.8c19.2,24.9,105.3,130.2,189.5,237.4c497.7,614.5,773.4,1127.5,830.8,1552.5c42.1,315.9-51.7,796.4-225.9,1140.9c-214.4,428.8-654.7,848-1098.8,1051C5628.7,4973.5,5150.1,5052,4734.7,5008z" />
        </g>
    </g>
</svg>