<svg version="1.0" xmlns="http://www.w3.org/2000/svg" width="1280.000000pt" height="1232.000000pt" viewBox="0 0 1280.000000 1232.000000" preserveAspectRatio="xMidYMid meet">

    <g transform="translate(0.000000,1232.000000) scale(0.100000,-0.100000)" fill="#000000" stroke="none">
        <path fill="red" d="M6311 12304 c-12 -9 -125 -170 -250 -358 -943 -1418 -1636 -2305
-2448 -3137 -926 -947 -2043 -1780 -3471 -2590 -139 -78 -162 -111 -128 -178
11 -20 85 -69 263 -176 846 -506 1561 -987 2206 -1482 1545 -1188 2770 -2554
3781 -4221 38 -62 82 -124 98 -137 56 -48 109 -27 160 64 1538 2714 3340 4464
6102 5926 159 85 187 112 172 169 -10 41 -35 59 -127 96 -1232 490 -2305 1122
-3179 1874 -375 323 -805 752 -1116 1116 -677 791 -1314 1771 -1857 2856 -45
90 -87 160 -103 173 -32 25 -71 27 -103 5z" />
    </g>
</svg>