<svg width="56" height="75" viewBox="0 0 56 75" fill="none" xmlns="http://www.w3.org/2000/svg">
<path d="M25.056 51.472C27.104 53.328 29.024 55.312 30.816 57.424C32.608 59.472 34.336 61.616 36 63.856C36.064 63.984 36.224 64.24 36.48 64.624C36.8 64.944 36.896 65.168 36.768 65.296C36.704 65.36 36.448 65.328 36 65.2C35.616 65.008 35.36 64.848 35.232 64.72C34.72 64.4 34.112 63.984 33.408 63.472C32.768 62.96 32.064 62.416 31.296 61.84C30.592 61.264 29.888 60.688 29.184 60.112C28.48 59.472 27.904 58.896 27.456 58.384C27.136 58.128 26.368 57.488 25.152 56.464C23.936 55.376 22.56 54.224 21.024 53.008C19.488 51.792 17.92 50.672 16.32 49.648C14.72 48.624 13.408 47.984 12.384 47.728C12.192 47.664 11.904 47.568 11.52 47.44C11.2 47.312 11.072 47.088 11.136 46.768C11.648 44.336 12.288 41.968 13.056 39.664C13.824 37.36 14.56 34.992 15.264 32.56C16.16 29.552 16.992 26.48 17.76 23.344C18.592 20.208 19.072 16.816 19.2 13.168C19.2 12.848 19.232 12.688 19.296 12.688C19.488 12.688 19.648 12.912 19.776 13.36C20.544 15.088 20.864 17.328 20.736 20.08C20.608 22.832 20.256 25.712 19.68 28.72C19.168 31.664 18.496 34.512 17.664 37.264C16.896 39.952 16.224 42.096 15.648 43.696L15.36 44.464C17.728 42.864 20.192 41.264 22.752 39.664C25.312 38.064 27.68 36.464 29.856 34.864C32.096 33.2 34.016 31.504 35.616 29.776C37.28 27.984 38.4 26.128 38.976 24.208C39.36 22.928 39.296 21.648 38.784 20.368C38.336 19.088 37.504 17.904 36.288 16.816C35.136 15.664 33.664 14.672 31.872 13.84C30.08 13.008 28.096 12.432 25.92 12.112C23.04 11.728 20.128 11.632 17.184 11.824C17.44 13.744 17.472 15.696 17.28 17.68C17.152 19.6 16.928 21.264 16.608 22.672C15.776 26.128 14.72 29.712 13.44 33.424C12.16 37.072 10.848 40.496 9.504 43.696C9.376 43.888 9.184 44.208 8.928 44.656C8.672 45.104 8.448 45.296 8.256 45.232C8.128 45.168 8.096 44.88 8.16 44.368C8.224 43.856 8.256 43.504 8.256 43.312C8.32 42.544 8.448 41.616 8.64 40.528C8.896 39.376 9.12 38.192 9.312 36.976C9.568 35.76 9.824 34.608 10.08 33.52C10.4 32.368 10.688 31.376 10.944 30.544C11.072 30.16 11.264 29.36 11.52 28.144C11.84 26.864 12.16 25.36 12.48 23.632C12.8 21.904 13.12 20.048 13.44 18.064C13.76 16.08 14.016 14.16 14.208 12.304L12.864 12.496C12.672 14.928 12.288 17.392 11.712 19.888C11.136 22.384 10.464 24.912 9.696 27.472C8.992 29.968 8.224 32.528 7.392 35.152C6.624 37.712 5.952 40.24 5.376 42.736C4.864 44.976 4.448 47.312 4.128 49.744C3.872 52.176 3.776 54.576 3.84 56.944C3.968 59.312 4.256 61.616 4.704 63.856C5.216 66.032 6.016 68.016 7.104 69.808C7.232 70.128 7.232 70.288 7.104 70.288C6.976 70.288 6.816 70.192 6.624 70C5.024 68.144 3.808 66.064 2.976 63.76C2.144 61.456 1.6 59.056 1.344 56.56C1.152 54 1.184 51.376 1.44 48.688C1.76 46 2.208 43.376 2.784 40.816C3.872 36.016 5.184 31.28 6.72 26.608C8.256 21.936 9.536 17.424 10.56 13.072C8.96 13.456 7.392 13.936 5.856 14.512C4.32 15.024 2.88 15.6 1.536 16.24C1.216 16.368 1.024 16.4 0.96 16.336C0.896 16.272 0.928 16.176 1.056 16.048C1.184 15.856 1.312 15.728 1.44 15.664C4.64 13.04 8.544 11.184 13.152 10.096C17.76 9.008 22.464 8.72 27.264 9.232C29.76 9.552 32.032 10.256 34.08 11.344C36.192 12.432 37.92 13.776 39.264 15.376C40.608 16.912 41.472 18.64 41.856 20.56C42.304 22.48 42.112 24.4 41.28 26.32C40.32 28.56 38.784 30.64 36.672 32.56C34.624 34.48 32.288 36.272 29.664 37.936C27.104 39.6 24.384 41.136 21.504 42.544C18.624 43.952 15.936 45.264 13.44 46.48C14.464 46.48 15.52 46.64 16.608 46.96C17.696 47.28 18.752 47.696 19.776 48.208C20.864 48.656 21.856 49.168 22.752 49.744C23.712 50.32 24.48 50.896 25.056 51.472ZM51.648 27.472C50.688 30.8 49.216 33.648 47.232 36.016C45.312 38.32 43.168 40.24 40.8 41.776C38.432 43.312 36.032 44.496 33.6 45.328C31.168 46.096 29.056 46.608 27.264 46.864C26.752 46.992 26.272 47.056 25.824 47.056C25.44 46.992 25.28 46.896 25.344 46.768C25.216 46.64 25.344 46.512 25.728 46.384C26.176 46.256 26.624 46.096 27.072 45.904C30.528 44.624 33.856 42.96 37.056 40.912C40.256 38.864 43.072 36.144 45.504 32.752C46.656 31.152 47.52 29.296 48.096 27.184C48.672 25.072 48.864 22.928 48.672 20.752C48.544 18.576 48 16.464 47.04 14.416C46.144 12.368 44.8 10.608 43.008 9.136C40.896 7.344 38.592 5.936 36.096 4.912C33.6 3.888 31.04 3.184 28.416 2.8C25.792 2.416 23.136 2.352 20.448 2.608C17.76 2.8 15.168 3.216 12.672 3.856C12.224 3.984 11.968 4.08 11.904 4.144C11.84 4.144 11.776 4.08 11.712 3.952C11.712 3.888 11.968 3.664 12.48 3.27999C13.504 2.64 14.848 2.064 16.512 1.55199C18.24 0.975994 20.16 0.591995 22.272 0.399998C24.448 0.207996 26.784 0.239996 29.28 0.495996C31.776 0.687998 34.336 1.264 36.96 2.224C39.648 3.12 42.176 4.528 44.544 6.44799C46.912 8.304 48.8 10.608 50.208 13.36C51.552 16.048 52.224 18.672 52.224 21.232C52.288 23.728 52.096 25.808 51.648 27.472ZM2.88 11.824C4.16 9.968 5.856 8.46399 7.968 7.31199C10.08 6.09599 12.384 5.2 14.88 4.62399C17.376 4.04799 19.968 3.792 22.656 3.856C25.408 3.92 28.064 4.24 30.624 4.816C33.184 5.392 35.552 6.256 37.728 7.408C39.968 8.56 41.824 9.968 43.296 11.632C44.32 12.848 45.088 14.16 45.6 15.568C46.176 16.912 46.464 18.32 46.464 19.792C46.528 21.2 46.368 22.576 45.984 23.92C45.664 25.264 45.184 26.512 44.544 27.664C44.416 27.92 44.096 28.368 43.584 29.008C43.072 29.584 42.752 29.808 42.624 29.68C42.496 29.616 42.592 29.264 42.912 28.624C43.232 27.984 43.456 27.504 43.584 27.184C44.096 25.52 44.288 23.888 44.16 22.288C44.096 20.624 43.776 19.088 43.2 17.68C42.688 16.272 41.984 15.024 41.088 13.936C40.192 12.784 39.232 11.856 38.208 11.152C35.776 9.552 33.024 8.432 29.952 7.792C26.88 7.088 23.744 6.832 20.544 7.024C17.408 7.152 14.336 7.696 11.328 8.65599C8.32 9.552 5.728 10.768 3.552 12.304C2.976 12.816 2.592 12.976 2.4 12.784C2.272 12.72 2.272 12.592 2.4 12.4C2.592 12.144 2.752 11.952 2.88 11.824ZM54.048 72.304C54.432 72.24 54.624 72.272 54.624 72.4C54.624 72.528 54.464 72.656 54.144 72.784C51.84 73.616 49.6 74.064 47.424 74.128C45.248 74.192 43.168 73.968 41.184 73.456C39.2 73.008 37.344 72.336 35.616 71.44C33.888 70.608 32.32 69.68 30.912 68.656C29.248 67.44 27.648 66.096 26.112 64.624C24.64 63.088 23.2 61.584 21.792 60.112C20.384 58.576 18.976 57.104 17.568 55.696C16.16 54.288 14.72 53.04 13.248 51.952C12.16 55.536 11.168 58.704 10.272 61.456C10.144 61.776 10.016 62.064 9.888 62.32C9.76 62.576 9.632 62.672 9.504 62.608C9.376 62.544 9.312 62.384 9.312 62.128C9.312 61.808 9.312 61.488 9.312 61.168C9.44 59.376 9.568 57.552 9.696 55.696C9.824 53.84 10.112 51.984 10.56 50.128C10.112 49.872 9.664 49.648 9.216 49.456C8.832 49.264 8.384 49.04 7.872 48.784C7.68 48.592 7.584 48.464 7.584 48.4C7.584 48.336 7.648 48.304 7.776 48.304C7.968 48.304 8.128 48.304 8.256 48.304C10.816 48.496 13.152 49.296 15.264 50.704C17.376 52.048 19.424 53.648 21.408 55.504C23.392 57.36 25.344 59.344 27.264 61.456C29.184 63.504 31.232 65.328 33.408 66.928C34.624 67.824 36 68.656 37.536 69.424C39.136 70.128 40.832 70.736 42.624 71.248C44.416 71.76 46.272 72.112 48.192 72.304C50.176 72.56 52.128 72.56 54.048 72.304ZM39.168 58.288C40.96 59.888 42.656 61.68 44.256 63.664C45.92 65.648 47.52 67.248 49.056 68.464C49.504 68.912 49.696 69.232 49.632 69.424C49.504 69.552 49.344 69.584 49.152 69.52C48.96 69.456 48.736 69.392 48.48 69.328C46.752 68.752 45.12 67.952 43.584 66.928C42.112 65.904 40.672 64.752 39.264 63.472C37.856 62.192 36.48 60.848 35.136 59.44C33.856 58.032 32.544 56.656 31.2 55.312C30.304 54.416 29.312 53.424 28.224 52.336C27.2 51.248 26.112 50.256 24.96 49.36C23.808 48.4 22.592 47.632 21.312 47.056C20.096 46.416 18.816 46.096 17.472 46.096L21.216 44.464C22.176 44.016 23.36 43.472 24.768 42.832C26.176 42.192 27.52 41.584 28.8 41.008C30.08 40.432 31.2 39.984 32.16 39.664C33.12 39.28 33.632 39.12 33.696 39.184C33.76 39.312 33.632 39.536 33.312 39.856C33.056 40.176 32.672 40.528 32.16 40.912C31.712 41.296 31.264 41.648 30.816 41.968C30.368 42.288 30.048 42.48 29.856 42.544C28.64 43.248 27.488 43.92 26.4 44.56C25.376 45.136 24.32 45.68 23.232 46.192C24.704 46.768 26.208 47.6 27.744 48.688C29.28 49.712 30.752 50.832 32.16 52.048C33.568 53.264 34.88 54.448 36.096 55.6C37.312 56.688 38.336 57.584 39.168 58.288ZM8.064 64.24C8.256 65.328 8.512 66.384 8.832 67.408C9.152 68.432 9.536 69.296 9.984 70C10.048 70 10.08 70.032 10.08 70.096C10.144 70.224 10.112 70.288 9.984 70.288C9.856 70.288 9.696 70.224 9.504 70.096C9.376 70.032 9.248 70 9.12 70C8.288 69.488 7.616 68.88 7.104 68.176C6.656 67.408 6.272 66.096 5.952 64.24C5.824 63.536 5.76 62.64 5.76 61.552C5.76 60.464 5.792 59.44 5.856 58.48C5.92 57.456 6.016 56.592 6.144 55.888C6.272 55.184 6.464 54.832 6.72 54.832C6.784 54.832 6.848 54.992 6.912 55.312C7.04 55.632 7.136 56.016 7.2 56.464C7.264 56.848 7.296 57.232 7.296 57.616C7.36 58 7.392 58.256 7.392 58.384C7.52 59.472 7.616 60.496 7.68 61.456C7.744 62.416 7.872 63.344 8.064 64.24ZM50.112 70.288C51.136 70.352 51.904 70.352 52.416 70.288C52.992 70.288 53.728 70.224 54.624 70.096C54.688 70.096 54.848 70.064 55.104 70C55.36 70 55.52 70.032 55.584 70.096C55.648 70.224 55.552 70.384 55.296 70.576C55.104 70.768 54.944 70.896 54.816 70.96C53.792 71.28 52.832 71.504 51.936 71.632C51.104 71.76 49.856 71.728 48.192 71.536C47.616 71.472 46.976 71.344 46.272 71.152C45.568 70.96 44.928 70.736 44.352 70.48C43.776 70.288 43.328 70.096 43.008 69.904C42.688 69.648 42.624 69.456 42.816 69.328C42.944 69.264 43.328 69.328 43.968 69.52C44.672 69.648 45.152 69.744 45.408 69.808C46.304 70 47.136 70.128 47.904 70.192C48.672 70.256 49.408 70.288 50.112 70.288Z" fill="#222222"/>
</svg>