<svg version="1.1" xmlns="http://www.w3.org/2000/svg" xmlns:xlink="http://www.w3.org/1999/xlink" x="0px" y="0px" viewBox="0 0 1000 1000" enable-background="new 0 0 1000 1000" xml:space="preserve">
    <g>
        <g transform="translate(0.000000,511.000000) scale(0.100000,-0.100000)">
            <path fill="black" d="M4730.1,4848.3C3222.2,3903.7,1876,2688.8,1168.8,1630.5C486.8,607.6,262-395.2,532.3-1216c293-886.5,1048.2-1520.5,1967.6-1656.9c982.5-144,1828.7,474.9,2093.9,1533.1c27.8,108.6,55.6,222.3,63.1,250.1c7.6,27.8,7.6-295.5,2.5-719.9c-12.6-1192.2-116.2-1790.8-444.5-2543.5c-131.3-298-149-396.6-83.3-421.8c50.5-20.2,1687.2-20.2,1737.7,0c65.7,25.2,48,123.8-83.3,421.8C5465.1-3613,5354-3001.8,5338.8-1872.7l-10.1,707.2l50.5-199.5c219.7-858.8,962.3-1465,1869.1-1523c1017.9-63.1,1929.7,616.3,2232.8,1667c272.8,937.1-27.8,2045.9-851.2,3137C8102,2613,7268.5,3421.3,6387.1,4080.5C5962.7,4398.8,5048.4,5010,4997.9,5010C4992.8,5010,4871.6,4936.8,4730.1,4848.3z" />
        </g>
    </g>
</svg>